<?xml version="1.0" encoding="UTF-8"?>
<svg id="Ebene_2" data-name="Ebene 2" xmlns="http://www.w3.org/2000/svg" viewBox="0 0 1026.51 349.64">
  <g id="Ebene_1-2" data-name="Ebene 1">
    <path d="M830.45,349.16H22.44c-11.32,0-20.5-9.18-20.5-20.5s9.18-20.5,20.5-20.5h808.01c11.32,0,20.5,9.18,20.5,20.5s-9.18,20.5-20.5,20.5Z"/>
    <path d="M51.9,99.75c11.76-19.93,28.37-27.23,51.23-27.23,33.48,0,68.98,18.75,68.98,73.66v91.6c0,14.88-12.06,26.94-26.94,26.94h-1.71c-14.88,0-26.94-12.06-26.94-26.94v-76.19c0-25.11-8.71-36.83-29.13-36.83-22.43,0-31.81,12.39-31.81,37.5v75.52c0,14.88-12.06,26.94-26.94,26.94h-1.71c-14.88,0-26.94-12.06-26.94-26.94V105.82c0-14.88,12.06-26.94,26.94-26.94h5.21c10.91,0,19.76,8.84,19.76,19.76v1.11ZM211.54,237.78V105.82c0-14.88,12.06-26.94,26.94-26.94h1.71c14.88,0,26.94,12.06,26.94,26.94v131.96c0,14.88-12.06,26.94-26.94,26.94h-1.71c-14.88,0-26.94-12.06-26.94-26.94ZM359.74,243.52c.82,11.56-8.32,21.2-19.7,21.2h-6.55c-14.88,0-26.94-12.06-26.94-26.94V43.87c0-14.88,12.06-26.94,26.94-26.94h1.71c14.88,0,26.94,12.06,26.94,26.94v49.74c14.73-15.74,33.48-21.09,52.9-21.09,48.22,0,92.42,36.16,92.42,98.11,0,57.26-36.5,100.45-93.75,100.45-23.11,0-46.23-11.02-53.96-27.56ZM451.88,171.63c0-25.85-20.77-49.15-49.39-47.09-24,1.73-42.12,22.14-42.35,46.2-.26,27.73,19.25,48.43,45.2,48.43s46.54-20.76,46.54-47.55ZM591.3,243.63v1.33c0,10.91-8.84,19.76-19.76,19.76h-6.55c-14.88,0-26.94-12.06-26.94-26.94V43.87c0-14.88,12.06-26.94,26.94-26.94h1.71c14.88,0,26.94,12.06,26.94,26.94v49.74c14.73-15.74,33.48-21.09,52.9-21.09,48.22,0,92.42,36.16,92.42,98.11,0,57.26-36.5,100.45-93.75,100.45-23.06,0-46.12-10.97-53.91-27.45ZM683.38,171.63c0-25.85-20.77-49.15-49.39-47.09-24,1.73-42.12,22.14-42.35,46.2-.26,27.73,19.25,48.43,45.2,48.43s46.54-20.76,46.54-47.55ZM769.99,237.78V43.87c0-14.88,12.06-26.94,26.94-26.94h1.71c14.88,0,26.94,12.06,26.94,26.94v193.9c0,14.88-12.06,26.94-26.94,26.94h-1.71c-14.88,0-26.94-12.06-26.94-26.94ZM1010.24,83c-13.5-5.66-29.03.71-34.68,14.2l-35.03,83.62-35.23-84.1c-5.65-13.5-21.18-19.86-34.68-14.2-13.5,5.65-19.86,21.18-14.2,34.68l55.38,132.22-26.59,63.48c-5.65,13.5.71,29.03,14.2,34.68,3.35,1.4,6.81,2.06,10.23,2.06,10.36,0,20.2-6.11,24.45-16.27l90.35-215.7c5.65-13.5-.71-29.03-14.2-34.68ZM239.33,0c-16.12,0-29.19,13.07-29.19,29.19s13.07,29.19,29.19,29.19,29.19-13.07,29.19-29.19S255.45,0,239.33,0Z"/>
  </g>
</svg>