<?xml version="1.0" encoding="UTF-8"?>
<svg id="Ebene_2" data-name="Ebene 2" xmlns="http://www.w3.org/2000/svg" viewBox="0 0 1417.34 539.16">
  <defs>
    <style>
      .cls-1 {
        fill: #fbd389;
      }

      .cls-2 {
        fill: #f16660;
      }

      .cls-3 {
        fill: #cd712c;
      }

      .cls-4 {
        fill: #fff;
      }

      .cls-5 {
        fill: #743c22;
      }

      .cls-6 {
        fill: #ededed;
      }

      .cls-7 {
        fill: #62aac9;
      }
    </style>
  </defs>
  <g id="Ebene_1-2" data-name="Ebene 1">
    <path class="cls-6" d="M425.1,262.82c11.76-19.93,28.37-27.23,51.23-27.23,33.48,0,68.98,18.75,68.98,73.66v91.6c0,14.88-12.06,26.94-26.94,26.94h-1.71c-14.88,0-26.94-12.06-26.94-26.94v-76.19c0-25.11-8.71-36.83-29.13-36.83-22.43,0-31.81,12.39-31.81,37.5v75.52c0,14.88-12.06,26.94-26.94,26.94h-1.71c-14.88,0-26.94-12.06-26.94-26.94v-131.96c0-14.88,12.06-26.94,26.94-26.94h5.21c10.91,0,19.76,8.84,19.76,19.76v1.11ZM584.74,400.85v-131.96c0-14.88,12.06-26.94,26.94-26.94h1.71c14.88,0,26.94,12.06,26.94,26.94v131.96c0,14.88-12.06,26.94-26.94,26.94h-1.71c-14.88,0-26.94-12.06-26.94-26.94ZM732.94,406.59c.82,11.56-8.32,21.2-19.7,21.2h-6.55c-14.88,0-26.94-12.06-26.94-26.94v-193.9c0-14.88,12.06-26.94,26.94-26.94h1.71c14.88,0,26.94,12.06,26.94,26.94v49.74c14.73-15.74,33.48-21.09,52.9-21.09,48.22,0,92.42,36.16,92.42,98.11,0,57.26-36.5,100.45-93.75,100.45-23.11,0-46.23-11.02-53.96-27.56ZM825.07,334.7c0-25.85-20.77-49.15-49.39-47.09-24,1.73-42.12,22.14-42.35,46.2-.26,27.73,19.25,48.43,45.2,48.43s46.54-20.76,46.54-47.55ZM964.49,406.7v1.33c0,10.91-8.84,19.76-19.76,19.76h-6.55c-14.88,0-26.94-12.06-26.94-26.94v-193.9c0-14.88,12.06-26.94,26.94-26.94h1.71c14.88,0,26.94,12.06,26.94,26.94v49.74c14.73-15.74,33.48-21.09,52.9-21.09,48.22,0,92.42,36.16,92.42,98.11,0,57.26-36.5,100.45-93.75,100.45-23.06,0-46.12-10.97-53.91-27.45ZM1056.57,334.7c0-25.85-20.77-49.15-49.39-47.09-24,1.73-42.12,22.14-42.35,46.2-.26,27.73,19.25,48.43,45.2,48.43s46.54-20.76,46.54-47.55ZM612.53,163.07c-16.12,0-29.19,13.07-29.19,29.19s13.07,29.19,29.19,29.19,29.19-13.07,29.19-29.19-13.07-29.19-29.19-29.19ZM1239.94,399.9c0-15.46-12.54-28-28-28h-9.19c-2.08,0-3.77-1.69-3.77-3.77v-160.35c0-15.46-12.54-28-28-28s-28,12.54-28,28v160.35c0,32.96,26.81,59.77,59.77,59.77h9.19c15.46,0,28-12.54,28-28ZM1400.09,243.83c-13.71-5.11-28.97,1.86-34.09,15.57l-31.73,85.11-31.73-85.11c-5.11-13.71-20.37-20.69-34.09-15.57-13.71,5.11-20.69,20.38-15.57,34.09l53.11,142.45-5.17,13.87c-6.47,17.34-23.24,28.99-41.75,28.99H394.42c-14.64,0-26.5,11.86-26.5,26.5s11.86,26.5,26.5,26.5h864.65c40.52,0,77.26-25.51,91.41-63.48l65.19-174.83c5.11-13.71-1.86-28.98-15.57-34.09Z"/>
    <g>
      <g>
        <path d="M615.89,152.81c-11.63-4.48-24.72-8.9-36.45-4.92l-42.47,14.39c-8.11-2.8-12.07-.39-21.41,1.24-32.75,5.35-64.93,13.79-97.18,21.28,5.84-42.29-7.31-45.53-28.81-70.17-3.93-5.48,11.26-12.44.04-30.87,4.97-3.28,9.83-6.04,13.11-10.99,4.74-7.17,2.84-16.49-4.08-21.67-24.3-18.15-49.42-3.1-52.76-11.81-3.62-5.67-7.82-10.58-11.94-15.93-3.83-5-7.78-9.93-13.19-13.41-22.12-14.18-52.67-11.19-76.72-3.38-1.78.58-3.32.73-4.66-.63-5.49-5.59-13.15-5.62-19.54-1.58-12.48,7.93-4.1,15.1-10.04,19.05-15.28,10.13-26.47,20.69-34.34,37.65-9.44,20.33-6.4,37.16-.73,57.49.39,1.41-.71,2.78-2.04,3.31-11.79,4.72-16.78,17.78-11.78,29.31,9.08,20.95,25.1,15.45,22.41,22.75-2.16,5.82-3.22,11.53-4.74,17.55-.89,3.48-2.24,7.75-.15,10.81,1.59,2.31,5.04-.54,7.42,0,2.75.63,1.31,5.46-.94,6.6-26.03,13.08-13.12,24.25-17.58,32.23-10.96,20.28,3.81,29.05-2.28,32.91-17.63,12.74-31.46,29.97-44.11,47.32-.83.9-.41,4.47-3.06,3.54-1.35-.48-1.63-2.63-2.2-3.46-13.11-21.71-20.46-45.24-45.26-56.44C31.25,245.73-4.28,277.88.42,318.94c7.84,69.99,76.06,119.78,143.23,125.53v20.52c.02,2.11,1.42,5.03-.1,6.85-8,9.6-14.08,20-21.43,30.15-3.51,4.86-24.48,12.23-16.99,27.19,3.46,6.91,10.42,7.66,17.2,8.64,8.83,1.28,16.78,1.95,25.79.61,2.22-.33,21.21,1.34,25.02-9.73,3.66-10.64-4.19-14.05-.56-21.59,1.87-3.88,2.44-8.98,5.76-12.15,1.79-1.69,21.04-4,43.47-25.43.9-.65,1.63-1.92,2.76-2.07,9.34.47,18.71.86,28.06,1.22,3.09-.51,2.41,5.45,1.16,7.18-4.44,5.75-9.19,12.17-5.47,18.71,2.48,4.36,19.99,30.43,22.54,33.47,12.77,15.24,45.89,11.35,60.15,5.09,7.42-3.26,10.34-11.38,6.46-18.5-12.25-20.24-32.13-7.79-41.18-25.82,29.17-11.51,43.13-32.59,49.71-61.64.84-3.71,2.44-6.54,4.78-9.45,6.97-8.65,2.02-13.88,8.95-23.68,12.89-16.69,8.96-40.4,7.33-59.93-1.25-15.92,1.04-31.47,3.32-47.14.3-2.07,3.65-2.98,5.15-3.6,36.3-14.62,118.42-51.35,155.35-66.51,16-6.39,9.91-11.08,14.13-10.44,16.89,2.56,23.07-2.36,27.32-.23l9.3,4.68c21.75,13.47,29.55-20.61,6.36-30.71,11.91-9.65,25.99,9.08,45.94,1.84,3.47-.92,5.76-3.66,7-6.93,5.3-11.17-17.37-18.91-25.03-22.23ZM167.3,365.26c-10.43,12.34-2.04,25.35-7.02,22.21-2.56-1.57-17.32-12.13-10.8-14.38,5.76-3.78,11.46-7.68,17.57-10.87.96-.51.98,2.18.25,3.04Z"/>
        <path class="cls-7" d="M150.7,362.64c-1.12.98-4.48,3.23-5.48,1.63-6.47-10.3-15.33-17.5-27.8-19.05,2.61-3.29,3.85-6.61,6.78-8.11,12.53-4.41,33.87,19.06,26.49,25.53Z"/>
        <path class="cls-5" d="M148.59,392.83c-.55,5.56-4.6,9.62-9.49,10.62-11.63,2.37-13.13-11.88-16.34-8.43-3.39,3.64-5.38,7.86-8.21,11.73-4.25,5.83-12,7.84-17.75,3.2-5-6.27-15.36-7.19-11.04-17.52-.08.31-.47.41-.79.43-2.98.11-4.14-2.03-4.8-4.55-4.05-15.53,14.41-34,27.36-40.77,1.54-7.4,7.68-11.15,5.64-14.26-6.47-10.22-15.18-26.64-21.27-37.26-9.16-15.38-24.4-27.71-42.97-28.4-45.41-1.29-46.51,55.79-30.03,85.79,18.54,39.15,54.95,64.97,95.75,77.38,5.08,1.47,30.29,8.96,31.52,2.75,2.51-12.66,6.12-24.64,11.41-36.36.33-.74-3.06-3.51-3.53-3.9-.79-.65-1.64-1.3-2.58-1.73s-1.91-.11-2.86-.58c0,.62,0,1.23-.06,1.84ZM66.67,336.67c-3.46,16.09-3.04,31.82-3.94,48.37-7.45-2.25-5.45-37.42-3.82-44.41.15-1.49,1.84-5.06.1-6.48-6.45-2.66-39.49-10.55-40.53-15.76,11.77-.15,27.88,5.37,39.31,8.26,2.2.58,3.99.06,4.67-2.29,2.96-9.2,9.09-28.04,20.05-33.77-.1,4.43-2.34,7.52-3.98,11.18-4.02,8.94-8.18,17.6-9.92,27.35,8.33,2.72,26.96,6.11,34.73,13.71-3.74,3.42-31.33-8.19-36.66-6.17Z"/>
        <path class="cls-3" d="M334.95,436.8c-5,14.18-13.21,26.57-25.28,35.61-10.34,7.75-41.81,20.46-54.24,16.13,1.96-8.58,9.57-7.54,7.22-21.31,9.87-.33,39.86-11.07,39.44-19.83-22.56,9.66-47.67,16.17-72.27,11.99.8-2.68,4.68-8.15,2.49-10.53-1.14-.94-3.95,1.71-4.94,2.96-10.43,13.01-26.8,26.37-42.57,32.2-52.89,15.61-30.42-64.42-16.66-89.07.96-1.85,4.13.91,5.14,1.68,15.34,11.73,34.72,17.52,51.82,25.91-.52,5.93,5.23,13.8,10.4,18.03,18.84,15.42,45.14,13.27,65.87,2.65,4.97-2.55,12.3-7.33,12.72-12.43-1.58.08,21.88-5.33,23.09-4.19.44,3.71-1.04,6.84-2.23,10.22Z"/>
        <path class="cls-7" d="M338.92,43.72c-44.06,7.02-85.13,27.23-117.29,58.18-1.48,1.45-2.36,1-2.85-.9l-5.57-24.73c-4-17.82.07-46.45,18.22-56.04,9.57-5.06,19.32-7.71,29.9-9.91,21.54-4.26,48.6-4.44,63.35,14.33,4.83,6.22,10.03,11.74,14.23,19.08Z"/>
        <path class="cls-7" d="M370.03,81.74c-5.07-4.81-9.87-9.36-15.93-12.91-2.27-1.33-5.01-1.63-6.24-4.26,15.64-4.42,26.48-4.6,42.67,1.14,1.21-3.17-1.21-5.38-3.49-6.61-15.01-8.1-33.96-4.68-49.59.93-44.86,16.12-61.43,54.39-110.59,48,34.98-34.54,80.63-53.36,128.21-58.28,37.53-4.95,64.86,19.29,14.96,31.99Z"/>
        <path class="cls-7" d="M212.75,110.23l-11.39,11.46c-2.1,2.11-4.3,2.58-6.45,1.28-5.51-3.3-10.7-1.98-11.85-6.18-11.08-31.64-3.57-64.83,26.85-83.02-9.95,27.9-4.62,43.55,2.96,71.01.82,1.62,1.3,4.01-.12,5.44Z"/>
        <path class="cls-1" d="M314.09,430.77c-.42,5.11-7.74,9.89-12.72,12.43-20.73,10.63-47.03,12.78-65.87-2.65-5.17-4.23-10.92-12.1-10.4-18.03,22.93,9.39,64.15,10.41,88.99,8.24Z"/>
        <path class="cls-3" d="M384.03,103.58c-3.15-6.01-13.2-17.75-4.16-16.67,6.23.98,9,11.15,4.16,16.67Z"/>
        <path class="cls-7" d="M231.28,10.29l-9.04,6.01c-.9-.21-1.99-.56-1.8-1.09,1.6-4.26,6.45-6.67,10.84-4.92Z"/>
        <path class="cls-1" d="M392.08,197.43c-4.77,12.28-12.43,22.79-22.46,31.22-1.5,1.26-2.54,2.53-3.09,3.96-1.67.68-3.12,2-4.69,3.56-10.23,10.09-25.2,13.83-38.18,7.71l-11.85-5.59c-.18,1.63.78,2.46.9,3.45-27.35-7.6-58.85-43.93-25.77-66.35,8.51-5.74,19.86-8.22,28.46-14.79,1.53-1.18,3.04-1.87,4.58-1.92.78,10.09,19.7,16.23,27.38,19.57,3.23,1.4,1.24,7.73-.99,9.46-4.38,3.4-8.13,6.31-13.15,8.38-12.81,5.27-27.35,2.94-38.11-5.72-.59-1.18,1.95-3.27,2-4.34.22-3.95-10.9-.65-14.54,8-.59,1.4.25,2.42.98,2.97,1.97,1.45,5.34-4.14,9.09-.27,8,8.25,10.86,19.23,26.34,31.89,28.6,20.62,45.19-1.65,50.97-28.66.68-6.98,8.46-7.73,11.6-13.19,1.85-2.4,2.35-5.34,2.96-8.18,1.17-3.05.85-6.94-1.47-9.38-4.27,3.27-2.72,11.74-10.12,16.31-4.16,2.57-11.1,3.21-15.21-.11-4.04-3.26-1.99-9.79,1.65-12.56,7.41-5.65,10.64-14.35,9.86-22.99,24.72,3,30.97,26.7,22.86,47.59Z"/>
        <path class="cls-7" d="M347.23,403.78c-.2,7.34-5.17,12.14-11.49,14.13-50.49,16.22-120.85,1.62-161.98-31.16-4.03-3.35-5.02-8.94-2.38-13.17.61-.97,2.47-1.3,3.31-.53,45.43,35.64,108.31,48.96,164.11,32.81,2.89-.82,4.85-2.64,8.44-2.08Z"/>
        <path class="cls-7" d="M534.01,205.84c-1.03,1.88-8.73,4.92-12.08,5.7-6.27-7.9-10.3-34.22-4.29-39.12,3.19-2.6,7.67-3.08,11.24-2.15-1.03,11.63-.53,22.38,4.47,32.78.63,1.31,1.02,2.15.67,2.79Z"/>
        <path class="cls-7" d="M514.28,213.11c-6.53-12.57-9.17-25.72-6.15-40.1-16.4,3.14-78.19,18.23-93.55,20.09-6.21,19.78-22.78,34.29-39.24,45.9-3.17,2.2.61,13.81-13.77,31.97-4.25,5.36-8.72,10.63-14.2,14.62-2.46,1.79-3.9,2.94-3.36,6.53,1.57,10.5,1.51,20.81.42,31.39-.32,4.04.34,11.39-5.33,10.83-1.69-.33-3.07-2.55-2.82-4.9,1.32-12.35,1.7-24.15.29-36.36-1.68-1.08-3.33-.37-5.37-2.18,6.46-3.88,1.54-15.71,9.35-12.54,1.38.56,2.11,1.44,3.49,1.67,6.25-6.94,11.88-13.98,16.41-22.2,1.18-2.13,5.98-11.48,4.18-12.31-1.13-.53-12.36,6.02-13.04,7.04-8.16,12.25-18.67,25.12-27.71,36.84-2.46,3.15-5.9,3.22-9.27.68-14.5-10.93-23.17-19.1-39.58-27.82-16.72-8.88-45.58-16.56-64.54-20.88-15.02-2.76-33.94-13.24-3.8-8.27-.34-3.44-2.43-5.04-3.43-7.69-1.62-4.33-3.18,1.93-6.65,2.04-1.56.05-2.96-.7-3.75-2.21l-4.09-7.83c-1.18-2.27-4.63.38-6.16,1.5-11.5,8.42-4.95,16.66-2.82,22.79.64,1.84,1.1,5.15-1.17,5.7-1.95.49-3.08-1.78-4.65-2.14-5.09,6.42-2.87,22.74,2.83,19.74,3.4-1.79,7.09-3.07,9.73-5.98.82-.99-1.8-2.89-2.48-4.35,3.18-2.3,6.87-3.04,10.83-2.95,32.48,1.01,72.17,15.93,92.93,39.75-1.58.71-2.64-1.29-3.35-2.01-2.46-.36-4.47-1.41-6.49-2.52-16.55-9.04-33.15-16.51-51.15-22.32-27.34-8.83-24.07-4.2-37.75,2.77-23.75,13.38-47.73,36.09-61.43,59.84.95,1.99,4.53,2.02,6.3,2.59,12.36,3.99,20.83,13.52,26.26,25.04.87,1.83,4.72-.69,6.01-1.78,17.46-15.66,36.69-31.82,60.21-37.76,1.65-.45,3.02.3,1.77,1.74-16.57,10.96-40,23.98-52.58,39.3-.28,2.11,0,6.41,1.6,8.06,6.83,6.99,14.75,12.36,23.45,16.71,43.41,23.43,95.32,32.15,142.36,15.02,6.62-2.3,11.44-6.93,13.68-13.47,3.93-11.48,4.5-23.46,3.06-35.65-1.85-15.64-1.15-30.6.39-46.06.17-1.69,2.47-36.76,8.83-29.98,1.27,1.36.42,3.7,2.24,5.17,32.66-15.13,115.37-44.64,143.05-63.06ZM298.94,312.3l-2.85,24.48c-.3,2.56-2.77,3.67-4.83,3.41-5.01-.87-.98-15.71.23-32.49.44-6.05.51-12.34-.35-18.32-.23-1.26-1.74-1.95-2.4-2.88-.81-1.88.23-4.78,1.78-6.21,1.59-1.36,3.83-.77,5.47.11,2.51,1.35,2.76,3.72,2.79,6.62-.24,8.25,1.51,16.94.17,25.29Z"/>
        <path d="M342.44,169.31c-5.62-2.7-11.64-5.27-15.12-10.77-5.55-13.75,54.06-26.66,31.39,7.03-4.28,5.66-10.44,6.54-16.27,3.74Z"/>
        <path d="M345.89,228.41c-12.55,2.87-20.56-2.4-28.45-11.71,17.48-3.7,14.87,1.22,21.11,3.99,3.38,1.51,7.12,1,11.2,3.32,1.29,1.04-1.92,3.95-3.86,4.4Z"/>
        <path class="cls-5" d="M358.7,165.57c-4.28,5.66-10.44,6.53-16.27,3.74-5.61-2.7-11.64-5.27-15.12-10.77-5.55-13.75,54.06-26.66,31.39,7.03Z"/>
        <path class="cls-2" d="M345.89,228.41c-12.55,2.87-20.56-2.4-28.45-11.71,17.48-3.7,14.87,1.22,21.11,3.99,3.38,1.51,7.12,1,11.2,3.32,1.29,1.04-1.92,3.95-3.86,4.4Z"/>
        <path class="cls-3" d="M139.15,370.91c.06.17,1.64,19.03,1.5,21.44-.12,1.97-1.5,3.17-2.74,3.55-7.51,2.25-5.55-15.23-15-11.25-3.45,1.45-5.92,4.33-7.97,7.39l-7.42,11.1c-1.02,1.53-2.96,1.81-4.32,1.49-5.81-1.36,2.16-22.57,4.09-27.49-6.58,4.24-10.18,10.76-12.36,18.01-1.18,3.93-6.55-.24-.73-13.13.26-.57,4.31-9.08,1.77-8.35-1.94,2.08-3.04,5.63-5.14,7.94-1.01,1.25-1.79,3.12-3.49,3.5-3.07-3.97,7.47-17.42,10.66-20.5,4.24-4.11,9.13-7.79,14.38-10.5,7.31-3.78,22.68,4.97,26.78,16.78Z"/>
        <path class="cls-5" d="M164.7,516.48c2.85,4,2.2,10.3-2.66,12.72-2.5,1.25-8.97,2.59-11.09.59-3.13-2.95.53-8.51.45-12.45-7.43,1.27-6.27,13.06-9.45,13.84-4.37,1.06-8.96.71-13.3-.27-5.14-1.16,3.03-13.89,6.69-17.47-8.3.25-12.88,7.4-14.95,14.95-.63,2.31-5.51.82-6.83-.4-8.99-8.25,11.39-15.54,14.73-20.91,5.6-9.88,13.26-18.24,18.56-28.26,9.83,11.53,6.84,11.1,22.62,15.68-1.9,5.38-8.37,16.92-4.77,21.97Z"/>
        <path class="cls-5" d="M328.95,524.81c-3.6-6.01-8.29-10.47-14.94-12.14-4.86.61,10.13,7.39,6.94,14.71-1.06,2.43-5.7,2.52-6.51.34-2.76-7.38-8.5-13.13-16.91-12.39,23.71,18.77.46,19.47-16.81,10.93-4.24-2.54-6.19-7.31-8.91-11.14-4.93-6.94-9.44-14.69-14.95-21.15,9.95.34,20.19-.83,29.9-3,6.39,6.13,12.33,14.82,21.57,16.88l11.27,2.42c5.54.83,15.91,8.96,9.35,14.54Z"/>
        <path class="cls-3" d="M411.61,166c-1.93-31.23-19.72-29.44-31.53-51.7l-8.98-16.93h.07c-5.34-9.27-12.37-17.05-21.57-22.07-16.92-9.21-20.66-3.99-34.27,4.61-25.22,16.59-47.39,38.47-80.8,37.09-4.13-.3-8.12.09-12.18-.9-2.43-.58-4.99,0-6.7,1.88-2.07,2.26-4.42,4.25-6.63,6.37-.99.95-6.09,5.36-5.24,6.77.77,1.27,1.26,2.99,1.7,4.43.4,1.33.58,2.66-.75,3.46-2.59,1.26-5.97-8.68-18.51-11.05-6.11-1.17-13.66.94-16.79,6.7-8.15,16.97,10.5,29.56,25.79,29.4.28.3-.38,2.08-.52,2.5-3.44,7.95-7.69,16.21-7.09,25.14,1.42-1.15,4.7-2.62,6.54-3.37,2.43,8.7-1.28,19.05,3.14,27.39,3-.77,4.1-4.76,7.08-5.05,2.83-.27,2.04,11.72,15.22,22.99,8.81,7.53,41.4,5.52,84.86,38.77l12.58,9.63c1.3.99,2.7.27,3.61-.88,6.55-8.31,13.14-16.24,19.1-25.4-.23-1.48-3.31-2.08-4.73-2.13-9.53-.31-16.69-5.22-22.29-11.9-27.35-7.6-58.85-43.93-25.77-66.35,8.51-5.74,19.86-8.22,28.46-14.79,1.53-1.18,3.04-1.87,4.58-1.92-3.29-18.8,45.53-28.23,49.24-8.84,24.72,3.01,31.23,26.8,22.86,47.59-4.61,12.34-12.43,22.79-22.46,31.22-1.5,1.26-2.54,2.53-3.09,3.96,2.7.32,4.95-1.34,7.39-2.93,21.45-14.26,39.35-36.72,37.68-63.68ZM194.59,150.54c-6.28-4.62-11.03-7.48-19.31-7.44-1.78-.06-1.65-3.02-1.21-4.28,1.24-2.91,5.5-2.74,8.25-2.28,8.18,1.34,14.58,8.15,16.11,16.2-1.48-.76-2.73-1.5-3.85-2.21ZM260.91,130.74c-8.15-8.67,21.11-27.39,27.52-18.36.62.78.94,3.66-.64,3.99-20.77,4.28-24.03,15.96-26.87,14.37ZM367.65,103.1c-12.34-3.69-20.23.08-21.35-3.36-1-3.06,7.47-7.61,12.07-6.16,1.79-.12,3.48.53,5.02,1.36,1.92,1.1,4.27,1.89,5.88,3.53,2.34,2.26,2.73,5.65-1.63,4.63Z"/>
        <path class="cls-3" d="M623.59,176.32c-2.93-.11-7.02-.85-7.02-.85-7.67-2.41-26.16-13.91-37.73,1.82-1.89,2.57-.8,5.56,1.47,7.21l10.16,7.4c3.49,2.54,4.92,7.09,3.66,11.24-.52,1.7-1.71,3.64-3.77,3.25-8.46-3.5-16.58-10.08-26.38-8.02-7.25,1.73-14.81,2.22-21.96-.31-2.34-.72-3.89-2.27-4.35-4.69-1.39-7.48-1.71-14.71-.64-22.82l43.56-14.49c5.22-1.74,10.73-2.03,16.08-.81,5.9,1.03,37.61,11.31,36.81,17.39-.86,4.72-6.53,3.8-9.89,3.67Z"/>
        <path class="cls-4" d="M358.16,211.46c-2.84,2.85-8.77,2.52-12.65,3.73-5.94,1.85-7.6-7.06-10.89-12.08,6.14-2.03,10.31-5.4,15.94-9.67,1.49,5.52.15,10.33,1,15.61,1.76,10.25,2.53-14.81,2.65-16.3,3.48,1.01,7.37,1.42,10.43,3.44-2.42,5.22-2.76,11.55-6.49,15.29Z"/>
      </g>
      <path class="cls-4" d="M274.89,168.37c.14.09,9.36-4.05,10.47-4.32,4.05-.97,8.58-1.5,12.71-1.17,21.49-6.25,8.35-38.05-10.15-38.12-22.58-.8-31.16,31.13-13.02,43.6Z"/>
      <path class="cls-4" d="M378.57,141.21c-8.83-2.11-18.7,1.74-27.12-2.87-4.53-2.68-4.78-11.36-4.29-16.12.51-5.04,2.96-10.07,7.72-12.32,15.11-6.92,31.18,17.38,23.69,31.31Z"/>
      <path d="M305.69,159.5c-13.68,14.68-30.14-13.21-17.07-23.38,13.37-9.46,25.53,12.73,17.07,23.38Z"/>
      <path d="M367.82,138.97c-10.1,13.88-26.87-8.07-16.91-17.95,10.22-9.32,23.04,8.04,16.91,17.95Z"/>
    </g>
  </g>
</svg>